# xmcd
#
# Track frame offsets: 
#        150
#        14349
#        30987
#        50762
#        66817
#        83798
#        104958
#        120210
#        135440
#        150079
#        163377
#        185902
#        200865
#        217473
#        227935
#        249043
#
# Disc length: 3591 seconds
#
# Revision: 5
# Processed by: cddbd v1.5.2PL0 Copyright (c) Steve Scherf et al.
# Submitted via: ExactAudioCopy v1.0b3
#
DISCID=e40e0510
DTITLE=松山千春 - 松山千春 シングルAB面コレクション PCCA-02022
DYEAR=2004
DGENRE=JPop
TTITLE0=旅立ち
TTITLE1=初恋
TTITLE2=かざぐるま
TTITLE3=銀の雨
TTITLE4=時のいたずら
TTITLE5=白い花
TTITLE6=青春
TTITLE7=MY自転車
TTITLE8=季節の中で
TTITLE9=青春II
TTITLE10=窓
TTITLE11=卒業
TTITLE12=夜明け
TTITLE13=サイクリング
TTITLE14=恋
TTITLE15=帰ろうか
EXTD=YEAR: 2003
EXTT0=
EXTT1=
EXTT2=
EXTT3=
EXTT4=
EXTT5=
EXTT6=
EXTT7=
EXTT8=
EXTT9=
EXTT10=
EXTT11=
EXTT12=
EXTT13=
EXTT14=
EXTT15=
PLAYORDER=
